<?xml version="1.0" standalone="no"?>
<!DOCTYPE svg PUBLIC "-//W3C//DTD SVG 20010904//EN"
 "http://www.w3.org/TR/2001/REC-SVG-20010904/DTD/svg10.dtd">
<svg version="1.0" xmlns="http://www.w3.org/2000/svg"
 width="700.000000pt" height="700.000000pt" viewBox="0 0 700.000000 700.000000"
 preserveAspectRatio="xMidYMid meet">
<metadata>
Created by potrace 1.14, written by Peter Selinger 2001-2017
</metadata>
<g transform="translate(0.000000,700.000000) scale(0.100000,-0.100000)"
fill="#000000" stroke="none">
<path d="M0 3500 l0 -3500 3500 0 3500 0 0 3500 0 3500 -3500 0 -3500 0 0
-3500z m3720 2825 c523 -55 999 -270 1336 -602 216 -212 365 -498 421 -808 22
-121 22 -367 -1 -499 -35 -205 -106 -380 -228 -558 -69 -101 -234 -265 -332
-329 -66 -44 -67 -44 -45 -59 229 -151 380 -314 484 -520 97 -194 134 -352
142 -605 5 -154 2 -198 -16 -304 -48 -281 -151 -495 -348 -723 -286 -331 -738
-562 -1288 -659 -113 -20 -164 -23 -390 -23 -256 -1 -305 3 -500 40 -481 91
-943 334 -1317 693 l-98 93 0 2025 0 2024 53 56 c28 31 108 103 177 160 412
344 906 552 1425 602 144 13 379 12 525 -4z m-2480 -1720 l0 -115 -190 0
c-104 0 -190 2 -190 4 0 10 91 200 101 213 9 10 46 13 145 13 l134 0 0 -115z
m4753 98 c19 -22 97 -182 97 -200 0 -10 -39 -13 -180 -13 l-180 0 0 108 c0 60
3 112 7 115 3 4 59 7 123 7 99 0 119 -3 133 -17z m-4753 -618 l0 -115 -247 0
c-137 0 -253 4 -260 8 -12 8 -5 52 28 174 l10 38 182 3 c100 1 206 3 235 5
l52 2 0 -115z m4954 68 c31 -96 45 -174 33 -179 -7 -2 -120 -3 -252 -2 l-240
3 -3 107 -3 108 203 3 c112 1 213 3 225 5 17 2 24 -7 37 -45z m-4954 -573 l0
-110 -280 0 -280 0 0 58 c0 31 3 81 6 110 l7 52 273 0 274 0 0 -110z m5034 79
c3 -17 6 -67 6 -110 l0 -79 -275 0 -275 0 0 110 0 110 269 0 269 0 6 -31z
m-5034 -583 c0 -98 -2 -115 -16 -118 -10 -2 -125 -1 -258 2 l-241 5 -11 65
c-7 35 -15 86 -18 112 l-7 48 276 0 275 0 0 -114z m5020 72 c-1 -55 -24 -177
-36 -186 -5 -4 -118 -6 -251 -4 l-243 3 0 114 0 115 265 0 265 0 0 -42z
m-5020 -603 l0 -115 -181 2 -181 3 -39 95 c-21 52 -38 103 -38 113 -1 16 16
17 219 17 l220 0 0 -115z m4894 18 c-20 -54 -38 -106 -41 -115 -5 -16 -23 -18
-184 -18 l-179 0 0 115 0 115 220 0 220 0 -36 -97z"/>
<path d="M2740 4555 l0 -585 538 0 c599 0 609 1 734 67 158 83 278 298 278
498 0 271 -179 505 -445 582 -53 15 -122 18 -582 21 l-523 3 0 -586z"/>
<path d="M2740 2371 l0 -581 388 -2 c512 -4 644 0 716 18 166 43 287 143 371
305 77 148 93 267 55 413 -27 106 -73 188 -148 262 -72 72 -121 103 -212 136
-65 23 -69 23 -617 26 l-553 3 0 -580z"/>
</g>
</svg>
